<?xml version="1.0" standalone="no"?>
<!DOCTYPE svg PUBLIC "-//W3C//DTD SVG 20010904//EN"
 "http://www.w3.org/TR/2001/REC-SVG-20010904/DTD/svg10.dtd">
<svg version="1.0" xmlns="http://www.w3.org/2000/svg"
 width="1024.000000pt" height="1024.000000pt" viewBox="0 0 1024.000000 1024.000000"
 preserveAspectRatio="xMidYMid meet">

<g transform="translate(0.000000,1024.000000) scale(0.100000,-0.100000)"
fill="#000000" stroke="none">
<path d="M0 5120 l0 -5120 5120 0 5120 0 0 5120 0 5120 -5120 0 -5120 0 0
-5120z m5176 4159 c138 -43 181 -80 214 -187 10 -33 37 -169 60 -303 65 -385
102 -541 145 -615 l26 -44 129 0 129 0 -24 -36 c-41 -61 -66 -144 -82 -274
-22 -191 -23 -193 -58 -140 -24 37 -29 37 -43 4 -11 -22 -9 -30 13 -58 15 -20
22 -40 19 -52 -4 -15 3 -28 26 -47 26 -22 29 -28 15 -33 -19 -8 -65 11 -65 26
0 5 -9 10 -20 10 -10 0 -24 9 -30 20 -12 22 -1 27 18 8 28 -28 9 17 -38 90
-57 87 -65 90 -19 7 40 -74 32 -81 -12 -10 -19 30 -37 55 -40 55 -13 0 -31
-61 -25 -85 10 -38 1 -31 -38 32 -41 65 -50 47 -15 -31 30 -69 17 -80 -15 -13
-16 31 -30 57 -32 57 -8 0 48 -137 67 -162 11 -16 16 -28 12 -28 -13 0 -54 53
-80 103 -34 67 -41 52 -9 -19 15 -31 25 -59 23 -61 -3 -2 -17 13 -32 32 -15
20 -29 34 -32 32 -2 -3 12 -44 32 -90 27 -62 35 -94 31 -114 -5 -23 4 -45 50
-118 51 -82 54 -90 38 -102 -17 -13 -59 -8 -81 9 -7 5 -13 4 -17 -4 -5 -10 -7
-10 -12 0 -3 6 -13 12 -23 12 -9 0 -23 6 -30 13 -11 10 -11 8 -2 -10 22 -42
12 -70 -22 -64 -11 2 -37 -25 -37 -37 0 -6 -9 -8 -20 -5 -11 3 -20 0 -20 -6 0
-6 12 -11 26 -11 34 0 53 -26 54 -72 0 -29 3 -36 15 -32 18 7 20 -18 3 -45 -9
-16 -3 -30 40 -92 68 -95 72 -147 7 -79 -19 19 -35 28 -46 25 -13 -5 -22 5
-37 38 -11 25 -25 48 -31 51 -6 4 -11 16 -11 27 0 10 -16 37 -36 59 -33 36
-47 68 -61 143 -6 32 -14 34 -30 8 -14 -22 -9 -42 32 -140 39 -94 26 -109 -20
-23 -46 86 -71 120 -80 111 -3 -4 4 -25 16 -48 29 -56 19 -61 -17 -9 -16 24
-31 45 -34 48 -25 25 -51 75 -47 91 3 10 -3 30 -14 43 -10 13 -19 29 -19 36 0
21 -42 110 -52 110 -6 0 -8 -6 -5 -14 3 -8 11 -33 17 -55 6 -22 15 -43 20 -46
13 -8 13 -35 0 -35 -6 0 -15 11 -20 25 -13 34 -22 32 -14 -2 8 -34 33 -83 34
-65 0 18 20 15 20 -3 0 -19 29 -77 42 -86 18 -12 37 -83 26 -97 -8 -9 -6 -19
9 -35 29 -33 81 -147 86 -189 4 -34 10 -45 48 -87 22 -25 33 -71 17 -71 -7 0
4 -15 24 -33 27 -23 40 -44 47 -77 6 -25 6 -46 2 -48 -5 -2 -7 -16 -4 -33 4
-30 -10 -41 -21 -14 -3 8 -12 15 -20 15 -10 0 -13 6 -9 18 5 14 3 13 -10 -3
-14 -17 -16 -18 -17 -3 0 9 5 20 10 23 21 13 10 57 -22 89 -69 70 -118 140
-118 166 0 5 -11 26 -25 46 -14 20 -25 43 -25 51 0 7 -11 31 -25 53 -14 22
-25 44 -25 49 0 5 -12 29 -26 52 l-26 44 6 -33 c3 -19 17 -56 31 -84 14 -27
25 -58 25 -69 0 -11 7 -22 15 -25 9 -4 15 -17 14 -33 -1 -14 2 -38 6 -53 6
-23 4 -28 -11 -28 -9 0 -14 -3 -10 -7 4 -5 13 -8 19 -8 7 0 20 -18 30 -39 15
-31 16 -41 6 -47 -7 -4 -17 -5 -21 -3 -4 3 -8 0 -8 -5 0 -6 6 -11 13 -11 16 0
39 -58 25 -62 -6 -2 -6 -13 0 -28 8 -22 -1 -90 -12 -90 -3 0 -37 23 -77 50
-84 58 -115 92 -156 174 -19 38 -32 54 -35 44 -4 -8 7 -41 23 -74 16 -32 50
-106 75 -164 25 -58 70 -155 100 -216 30 -62 54 -117 54 -123 0 -17 9 -14 61
20 71 45 73 50 48 103 -23 51 -17 76 10 37 9 -14 24 -34 34 -45 15 -19 18 -19
27 -5 5 9 44 43 85 75 60 45 73 59 61 66 -18 10 -22 53 -6 63 6 4 17 -10 25
-29 9 -20 20 -36 25 -36 18 0 10 -29 -11 -41 -12 -6 -65 -50 -118 -97 -54 -48
-121 -103 -149 -122 -29 -19 -52 -40 -52 -47 0 -27 43 -125 75 -172 31 -44 75
-152 75 -182 0 -6 9 -18 19 -27 11 -10 32 -39 47 -67 15 -27 42 -70 61 -94 18
-25 36 -56 40 -70 9 -40 33 -63 50 -50 7 7 17 9 21 5 4 -4 -1 -13 -11 -20 -9
-7 -17 -19 -17 -27 0 -7 -14 3 -31 24 -27 33 -89 76 -89 62 0 -3 23 -35 51
-71 28 -36 49 -67 47 -70 -6 -6 -98 94 -98 107 0 5 -4 9 -10 9 -5 0 -7 -6 -4
-13 3 -8 -2 -20 -11 -27 -8 -7 -15 -23 -15 -36 0 -17 -4 -22 -15 -18 -8 4 -15
1 -15 -5 0 -6 11 -11 25 -11 14 0 25 -4 25 -9 0 -4 11 -20 25 -35 30 -32 31
-43 8 -49 -13 -3 -11 -5 6 -6 19 -1 22 -5 17 -25 -5 -21 1 -30 39 -56 25 -17
45 -36 45 -42 0 -7 -5 -7 -14 1 -10 8 -16 9 -21 1 -9 -14 3 -30 18 -25 14 6
47 -48 47 -76 0 -38 -33 -13 -64 47 -8 18 -45 63 -81 100 -37 38 -69 81 -72
97 -3 15 -10 27 -16 27 -5 0 -27 19 -49 42 -45 49 -50 38 -9 -23 27 -40 32
-67 10 -54 -5 4 -9 1 -9 -5 0 -6 -5 -8 -11 -5 -5 4 -8 12 -6 18 6 18 -30 50
-47 44 -19 -8 -27 4 -16 23 9 15 -17 77 -27 66 -4 -3 -15 6 -26 21 -12 18 -16
21 -12 8 15 -42 17 -55 8 -55 -5 0 -15 12 -22 26 -6 15 -14 24 -18 21 -3 -4 0
-13 7 -21 9 -12 9 -22 -2 -46 -7 -17 -18 -28 -25 -25 -8 2 -13 -3 -13 -14 0
-27 11 -33 27 -13 11 15 12 15 7 1 -3 -10 -1 -20 5 -24 6 -3 11 1 11 9 0 8 4
18 10 21 6 4 7 -2 1 -17 -6 -15 -5 -31 1 -41 14 -26 20 -67 9 -67 -5 0 -13 5
-16 10 -4 6 -11 8 -16 5 -5 -4 -9 3 -9 14 0 11 -14 36 -31 56 -24 27 -37 34
-53 29 -32 -10 -32 -11 3 -60 30 -41 32 -50 26 -91 -4 -25 -12 -54 -18 -64
-17 -27 17 -61 51 -52 23 5 24 4 11 -9 -8 -9 -16 -16 -19 -16 -28 1 -32 -2
-19 -19 12 -15 12 -16 -3 -10 -11 4 -15 2 -12 -7 3 -7 11 -13 19 -13 8 0 12 4
9 9 -3 4 -1 8 3 8 5 0 13 -8 20 -19 10 -16 8 -18 -18 -15 -25 3 -27 1 -17 -10
7 -8 15 -12 18 -11 3 2 6 -5 6 -16 0 -12 -5 -18 -13 -15 -7 3 -15 0 -19 -6 -4
-6 -3 -8 3 -5 12 7 22 -21 16 -40 -3 -7 -9 -13 -15 -13 -6 0 -6 6 2 15 9 10 9
15 1 15 -6 0 -11 -3 -12 -7 -5 -36 -4 -72 3 -93 l9 -24 -23 19 c-23 19 -23 19
1 -7 13 -15 28 -26 33 -25 5 1 17 -9 26 -23 11 -16 12 -21 4 -16 -8 5 7 -20
32 -55 25 -35 46 -66 46 -70 0 -16 -22 -20 -37 -7 -14 11 -15 11 -9 0 6 -10 3
-13 -10 -12 -34 4 -45 0 -38 -12 4 -6 6 -30 6 -54 -2 -37 0 -42 17 -37 13 3
21 -1 25 -14 3 -10 22 -42 41 -71 19 -30 35 -55 35 -57 0 -2 -9 -3 -19 -2 -11
0 -17 5 -15 9 3 4 -6 27 -19 49 -22 36 -25 38 -24 16 1 -14 5 -23 9 -21 4 3
11 -4 17 -14 8 -15 4 -20 -20 -31 -30 -13 -38 -36 -16 -44 7 -4 6 -6 -5 -6 -9
-1 -18 5 -21 12 -2 7 -8 8 -13 3 -5 -5 -4 -11 4 -13 7 -3 17 -13 22 -23 8 -15
5 -24 -15 -44 -29 -29 -35 -56 -7 -35 14 11 13 10 -2 -9 -11 -12 -15 -22 -11
-22 4 0 0 -9 -10 -20 -10 -11 -13 -20 -7 -20 19 0 14 -18 -7 -25 -21 -6 -33
-36 -21 -55 5 -9 9 -9 14 -1 4 6 2 11 -4 11 -6 0 -8 5 -4 11 4 8 9 7 15 -2 5
-8 2 -20 -8 -31 -12 -14 -13 -18 -3 -18 7 0 10 -3 6 -7 -4 -5 -13 0 -21 10
-12 16 -13 15 -18 -10 -4 -19 1 -37 14 -56 12 -16 18 -31 15 -34 -10 -11 -56
16 -56 32 0 9 -5 13 -10 10 -6 -4 -8 -11 -5 -16 4 -5 -1 -9 -9 -9 -9 0 -16 -5
-16 -10 0 -7 6 -7 18 -1 12 6 23 5 37 -5 10 -8 28 -14 38 -14 15 0 17 -3 8
-13 -6 -8 -8 -17 -4 -21 4 -4 0 -4 -10 0 -18 7 -24 -10 -7 -21 6 -3 10 -11 10
-16 0 -6 -5 -7 -10 -4 -16 10 -7 -18 10 -32 8 -7 12 -13 8 -14 -5 -1 -12 -3
-18 -4 -5 -1 -16 -3 -22 -4 -10 -1 -9 -4 1 -10 8 -5 11 -16 7 -26 -4 -12 -2
-16 8 -12 9 4 14 -2 14 -20 0 -13 -6 -27 -13 -30 -8 -2 -16 -11 -19 -19 -3 -8
-2 -13 3 -9 15 8 41 -24 34 -42 -5 -12 -3 -14 8 -8 12 8 12 6 0 -8 -15 -18
-26 -23 -16 -7 3 6 1 10 -6 10 -8 0 -8 5 2 18 11 13 9 13 -9 -2 -16 -14 -19
-22 -10 -27 9 -6 8 -12 -3 -25 -8 -10 -9 -15 -4 -12 6 4 16 -2 23 -13 10 -15
10 -19 0 -19 -9 0 -8 -3 2 -10 11 -7 12 -10 2 -10 -10 0 -10 -4 2 -16 18 -17
21 -28 7 -19 -5 3 -13 0 -17 -6 -4 -8 -3 -9 4 -5 8 5 12 -1 12 -14 0 -24 18
-61 33 -72 26 -16 9 -98 -20 -98 -7 0 -13 11 -13 25 0 24 2 25 23 14 20 -11
21 -11 8 5 -14 17 -25 17 -63 1 -13 -5 -18 -2 -18 9 0 9 -5 16 -10 16 -7 0 -7
-7 0 -20 10 -18 8 -20 -12 -17 -13 2 -18 2 -12 0 7 -2 14 -18 16 -34 4 -22 1
-29 -9 -25 -9 4 -13 -3 -13 -19 0 -15 -6 -25 -14 -25 -22 0 -29 19 -15 38 13
16 12 16 -6 1 -11 -9 -26 -14 -34 -12 -9 4 -11 0 -6 -16 8 -26 -10 -28 -24 -4
-6 10 -11 12 -11 6 0 -7 9 -18 20 -25 25 -16 26 -28 1 -28 -23 0 -34 -25 -22
-49 14 -25 100 -103 144 -130 46 -28 47 -35 2 -28 -64 10 -170 96 -216 174
l-25 42 0 -34 c0 -18 4 -31 9 -28 5 3 4 -5 -3 -17 -8 -15 -8 -20 -1 -16 6 4
11 2 11 -3 0 -6 -6 -11 -12 -12 -10 0 -10 -2 -1 -5 16 -7 5 -34 -13 -34 -8 0
-14 -7 -14 -16 0 -8 4 -13 8 -10 4 2 13 -4 20 -15 10 -15 10 -19 -2 -19 -8 0
-17 -7 -20 -16 -4 -10 -2 -13 6 -8 8 5 9 2 5 -9 -4 -10 1 -24 14 -35 13 -13
17 -25 13 -37 -6 -14 -4 -16 7 -10 8 4 1 -7 -16 -25 -21 -24 -25 -31 -12 -27
13 5 17 3 15 -5 -3 -7 -10 -14 -16 -14 -24 -3 -26 -4 -14 -16 8 -8 15 -8 25 0
14 12 27 7 27 -11 0 -5 -7 -7 -15 -3 -8 3 -15 1 -15 -4 0 -5 -8 -6 -17 -3 -15
6 -16 5 -3 -9 10 -11 17 -12 22 -5 4 6 10 8 14 4 4 -4 2 -13 -4 -19 -9 -9 -8
-16 5 -31 14 -15 14 -18 3 -15 -9 2 -14 -4 -14 -14 1 -10 -2 -15 -7 -12 -5 3
-9 -2 -9 -11 0 -9 -4 -13 -10 -10 -5 3 -10 1 -10 -4 0 -6 -4 -11 -10 -11 -5 0
-7 8 -4 18 5 14 4 14 -4 2 -13 -18 -5 -33 14 -26 16 6 17 4 8 -18 -3 -9 -16
-16 -28 -16 -14 0 -17 -3 -8 -8 10 -7 8 -15 -9 -36 -11 -14 -17 -26 -12 -25
21 4 31 -2 28 -18 -1 -12 -9 -17 -21 -15 -17 4 -17 2 3 -15 21 -19 21 -20 3
-33 -14 -10 -16 -17 -8 -27 7 -9 7 -21 -2 -42 -24 -59 2 -51 52 15 158 209
309 293 538 300 91 3 116 7 118 18 2 8 12 18 23 21 11 4 19 11 17 17 -4 12
-95 48 -121 48 -25 0 -30 22 -22 86 5 43 10 54 23 53 9 -2 31 4 47 13 21 11
36 13 47 7 18 -10 48 -64 48 -86 0 -7 9 -22 20 -33 31 -31 60 -82 60 -107 0
-12 5 -25 10 -28 6 -3 10 -12 9 -18 0 -9 -2 -9 -6 1 -6 14 -59 16 -68 2 -3 -5
4 -19 17 -30 13 -11 39 -34 58 -51 l35 -31 6 24 c4 13 7 -10 8 -53 1 -63 -2
-78 -16 -83 -27 -11 -57 27 -62 77 -1 4 -8 7 -16 7 -8 0 -15 5 -15 10 0 6 5
10 10 10 6 0 10 11 10 25 0 29 -24 34 -38 8 -8 -14 -14 -10 -37 26 -33 50 -53
56 -156 47 -138 -11 -320 -86 -327 -135 -2 -13 -8 -19 -15 -15 -7 4 0 -6 16
-23 15 -16 27 -32 27 -36 0 -15 -21 -6 -42 18 -12 14 -26 25 -32 25 -18 0 -85
-72 -79 -86 3 -7 -3 -21 -12 -31 -12 -11 -14 -18 -6 -21 14 -5 15 -32 1 -32
-7 0 -7 -6 0 -20 8 -14 8 -20 0 -20 -6 0 -8 -5 -5 -10 3 -6 1 -10 -4 -10 -6 0
-11 -9 -11 -21 0 -11 -4 -17 -10 -14 -5 3 -10 2 -10 -4 0 -5 -3 -17 -7 -27 -5
-14 -3 -16 11 -11 10 4 15 3 11 -3 -11 -18 -26 -10 -40 23 -11 24 -14 27 -15
12 0 -12 18 -39 40 -60 22 -21 40 -44 40 -51 0 -7 8 -10 18 -7 24 6 45 -20 46
-59 1 -26 6 -33 26 -38 15 -4 24 -13 24 -23 -1 -10 11 -26 27 -38 16 -11 29
-26 29 -33 0 -18 37 -49 49 -42 12 8 96 -73 86 -82 -4 -4 -13 1 -20 11 -9 13
-20 17 -35 12 -18 -6 -19 -9 -7 -18 7 -7 21 -25 31 -40 16 -26 19 -27 34 -13
16 13 21 13 50 -6 36 -23 45 -60 12 -51 -11 3 -20 0 -20 -6 0 -6 6 -11 13 -11
19 0 51 -37 76 -87 21 -42 51 -73 38 -39 -6 16 -5 16 16 -1 13 -10 38 -35 56
-56 19 -21 36 -35 39 -32 3 3 -8 20 -25 38 -30 30 -123 162 -123 172 0 3 6 5
13 5 17 -1 111 -99 205 -216 83 -105 99 -118 122 -104 10 6 3 22 -31 66 -74
98 -74 102 0 29 39 -38 71 -64 71 -57 0 28 -32 85 -83 149 -62 78 -81 109 -72
123 10 16 22 12 59 -21 29 -25 41 -29 65 -24 31 7 38 1 81 -59 14 -20 31 -36
39 -36 8 0 11 -6 7 -16 -7 -18 21 -64 39 -64 14 0 75 -50 75 -62 0 -4 -7 -5
-15 -2 -8 4 -22 1 -30 -6 -8 -7 -15 -9 -15 -4 0 5 -4 3 -8 -4 -11 -16 -37 -21
-132 -28 -41 -3 -86 -10 -100 -15 -14 -5 -34 -10 -45 -12 -11 -1 -24 -5 -30
-9 -12 -7 -48 -13 -175 -29 -52 -6 -98 -13 -101 -15 -7 -4 -51 -7 -314 -25
-282 -19 -652 -30 -1043 -33 -177 -1 -224 -4 -231 -15 -14 -21 -103 33 -165
100 -90 97 -126 195 -151 409 -13 118 -15 422 -14 2395 1 1243 4 2598 8 3010
7 746 7 750 30 820 38 116 87 199 155 263 87 81 154 100 405 117 l104 7 44 41
c25 23 55 62 68 88 29 57 67 203 95 368 45 263 102 536 120 571 11 21 40 56
66 78 99 88 212 106 670 110 211 2 238 0 300 -19z m837 -1156 c-13 -2 -35 -2
-50 0 -16 2 -5 4 22 4 28 0 40 -2 28 -4z m492 -27 c278 -41 406 -90 478 -182
123 -159 124 -162 136 -364 13 -195 12 -6123 0 -6256 -5 -55 -16 -121 -24
-145 l-14 -44 7 55 c4 30 5 1092 3 2360 l-3 2305 -22 17 c-11 10 -31 18 -43
18 -12 0 -25 5 -28 10 -8 13 26 13 59 0 l26 -10 0 230 c0 209 -1 229 -17 234
-10 3 -108 12 -217 21 -374 29 -489 43 -516 63 -14 10 -38 45 -55 77 l-30 60
0 621 0 620 30 59 c48 94 67 100 305 99 181 -1 308 -15 375 -40 37 -13 -46 64
-91 85 -50 24 -210 65 -309 80 -189 27 -242 34 -351 41 -115 8 -114 9 41 4 88
-2 205 -10 260 -18z m-960 -525 c3 -5 1 -12 -4 -15 -5 -3 -11 1 -15 9 -6 16 9
21 19 6z m2063 -99 c36 -31 41 -43 15 -39 -31 6 -82 41 -92 64 -9 20 -8 21 17
12 15 -5 42 -22 60 -37z m-1893 -50 c-8 -8 -55 47 -55 63 0 6 14 -5 31 -23 17
-19 27 -37 24 -40z m-121 42 c4 -9 4 -19 2 -21 -8 -8 -26 8 -26 23 0 19 16 18
24 -2z m2253 -325 c8 -8 17 -8 31 0 14 8 30 8 54 0 18 -6 39 -13 46 -15 20 -6
-28 -72 -58 -77 -15 -3 -33 1 -44 11 -14 13 -20 14 -23 5 -3 -7 -13 -13 -24
-13 -10 0 -19 -6 -20 -12 0 -10 -2 -10 -6 0 -7 18 -21 14 -28 -9 -4 -11 -9
-18 -12 -15 -4 3 -13 0 -21 -7 -13 -10 -14 -9 -7 3 5 9 -1 7 -14 -5 -12 -11
-21 -15 -19 -10 2 6 -1 11 -5 12 -10 3 -37 30 -37 37 0 3 11 6 23 6 13 0 32
10 43 21 21 24 93 79 104 79 3 0 11 -5 17 -11z m-2270 -66 c7 -15 10 -29 7
-32 -10 -10 -39 16 -42 38 -5 30 20 26 35 -6z m-184 -37 c7 -18 -1 -26 -25
-26 -18 0 -25 20 -11 33 11 12 31 8 36 -7z m-253 -208 c0 -9 3 -8 10 2 7 11
13 5 29 -30 11 -25 21 -54 20 -65 l0 -20 -15 20 c-8 11 -20 20 -27 20 -7 0
-11 10 -10 22 1 11 -4 27 -12 33 -17 14 -20 30 -5 30 6 0 10 -6 10 -12z m84
-123 c-4 -17 0 -27 15 -37 22 -14 29 -42 9 -36 -22 8 -50 66 -43 88 9 28 26
14 19 -15z m66 -132 c0 -20 -24 -11 -28 10 -2 12 1 15 12 11 9 -3 16 -13 16
-21z m124 -31 c2 -4 -9 -15 -25 -24 l-29 -17 16 25 c17 25 29 30 38 16z m-84
-37 c10 -13 9 -15 -9 -15 -12 0 -21 6 -21 15 0 8 4 15 9 15 5 0 14 -7 21 -15z
m-250 -85 c0 -8 -9 0 -20 18 -11 18 -20 36 -20 40 1 14 40 -43 40 -58z m0 -34
c0 -24 -17 -28 -23 -6 -3 13 0 20 9 20 8 0 14 -6 14 -14z m341 -43 c5 -15 7
-39 4 -53 -7 -25 -7 -25 -22 -5 -8 11 -18 19 -23 18 -4 -1 -11 4 -14 12 -3 8
-1 15 4 15 5 0 12 9 15 20 9 28 24 25 36 -7z m-301 -39 c0 -9 -5 -14 -12 -12
-18 6 -21 28 -4 28 9 0 16 -7 16 -16z m-33 -72 c4 -32 0 -45 -17 -62 -12 -12
-24 -20 -26 -17 -11 11 -22 67 -13 67 5 0 9 -4 9 -10 0 -5 5 -10 11 -10 6 0
10 16 9 38 -3 53 -1 57 11 45 6 -6 14 -29 16 -51z m70 27 c16 -16 5 -39 -17
-39 -23 0 -34 16 -26 35 6 18 28 19 43 4z m138 1 c3 -5 2 -10 -4 -10 -5 0 -13
5 -16 10 -3 6 -2 10 4 10 5 0 13 -4 16 -10z m1155 -380 c0 -5 -4 -10 -10 -10
-5 0 -10 5 -10 10 0 6 5 10 10 10 6 0 10 -4 10 -10z m128 -807 c-10 -2 -26 -2
-35 0 -10 3 -2 5 17 5 19 0 27 -2 18 -5z m89 -60 c-2 -16 -4 -5 -4 22 0 28 2
40 4 28 2 -13 2 -35 0 -50z m83 52 c7 -9 9 -22 5 -32 -5 -10 -8 -29 -7 -43 0
-21 0 -22 -4 -3 -7 31 -33 37 -44 10 -7 -18 -9 -14 -9 24 -1 25 2 49 6 52 11
12 40 8 53 -8z m81 -4 c0 -3 2 -23 4 -43 3 -31 0 -40 -18 -49 -18 -9 -20 -9
-9 2 18 19 15 41 -5 37 -11 -2 -17 -11 -15 -23 2 -15 0 -16 -6 -7 -5 7 -7 24
-5 36 4 17 10 22 24 19 22 -6 26 16 7 36 -11 10 -10 11 5 6 9 -4 17 -10 18
-14z m63 13 c10 -4 16 -17 15 -38 -1 -20 -3 -24 -6 -11 -10 45 -12 48 -28 35
-18 -15 -20 -61 -2 -79 10 -11 9 -13 -3 -9 -19 6 -26 74 -9 94 13 16 12 16 33
8z m7 -97 c-10 -9 -11 -8 -5 6 3 10 9 15 12 12 3 -3 0 -11 -7 -18z m-1943 -74
c-8 -10 -14 -10 -24 -2 -18 15 -18 15 11 15 19 0 22 -3 13 -13z m-21 -39 c-10
-10 -37 16 -37 34 0 13 4 12 22 -5 12 -13 19 -25 15 -29z m203 -15 c0 -15 -11
-10 -31 14 -29 34 -23 57 6 24 14 -15 25 -32 25 -38z m1632 15 c86 -2 113 -16
147 -75 22 -38 29 -109 11 -109 -5 0 -10 8 -10 18 0 14 -2 15 -10 2 -9 -13
-10 -13 -10 0 0 13 -1 13 -10 0 -7 -11 -10 -12 -10 -2 0 10 -3 10 -15 -2 -8
-8 -15 -30 -14 -48 1 -31 1 -31 9 -8 4 14 9 18 9 10 1 -13 3 -13 10 -1 8 12
11 10 16 -11 4 -14 6 -32 5 -39 -6 -37 1 -70 12 -63 8 5 9 -9 5 -56 -4 -35 -7
-76 -7 -92 0 -28 -1 -29 -22 -14 -33 23 -37 20 -31 -23 6 -43 -10 -81 -33 -81
-9 0 -27 9 -42 20 -14 11 -28 17 -31 12 -8 -13 -85 -26 -77 -13 3 5 1 11 -5
13 -6 2 -13 15 -14 29 -2 15 -14 44 -28 66 -17 26 -23 48 -20 66 3 15 8 25 12
22 4 -2 5 10 3 26 -3 17 -11 33 -18 36 -8 3 -14 11 -14 19 0 19 -28 6 -35 -17
-4 -10 -11 -19 -16 -19 -6 0 -7 5 -4 10 4 6 4 19 0 28 -6 15 -8 15 -15 -3 -6
-14 -9 -1 -9 42 -1 34 4 65 9 68 6 4 8 16 5 28 -2 12 -2 16 1 10 4 -10 9 -10
20 1 18 18 18 30 0 23 -10 -4 -12 4 -10 31 2 29 12 45 46 75 38 34 47 37 78
31 19 -4 69 -8 112 -10z m-1802 -50 c0 -2 -9 -4 -20 -4 -11 0 -20 4 -20 9 0 5
9 7 20 4 11 -3 20 -7 20 -9z m-39 -181 c-11 -5 -11 -7 0 -14 11 -7 11 -9 1 -9
-7 0 -10 -5 -6 -12 4 -6 3 -8 -4 -5 -8 6 -9 23 -3 45 1 1 7 2 14 1 8 0 8 -2
-2 -6z m412 -65 c18 -19 23 -38 10 -38 -16 0 -64 70 -57 82 5 8 11 6 18 -7 6
-10 19 -27 29 -37z m1190 -88 c-3 -13 1 -26 10 -33 16 -13 50 -76 62 -116 l7
-24 -25 19 c-14 11 -35 38 -46 62 -21 43 -29 112 -12 112 5 0 7 -9 4 -20z
m-4123 -62 c0 -16 11 -23 33 -19 5 1 6 -3 2 -9 -4 -6 5 -10 22 -10 16 0 35 -6
42 -12 9 -8 12 -9 7 -1 -4 8 0 8 18 0 13 -7 23 -15 20 -18 -2 -3 7 -5 19 -5
12 1 31 -5 41 -13 13 -11 17 -12 12 -3 -7 11 -4 12 11 4 21 -11 61 -11 80 1 6
4 22 -5 35 -20 13 -16 31 -29 38 -31 18 -4 31 -23 24 -34 -3 -4 0 -8 6 -8 17
0 1 -20 -24 -30 -13 -5 -28 -3 -41 4 -29 19 -133 20 -150 2 -10 -9 -11 -16 -4
-18 7 -2 4 -10 -7 -18 -11 -9 -15 -10 -10 -2 7 11 -11 17 -37 13 -5 -1 -6 3
-2 9 9 14 -66 88 -87 85 -9 -2 -27 5 -39 16 -12 10 -26 16 -32 12 -5 -3 -7 -2
-4 3 3 6 2 16 -3 24 -7 11 -11 11 -24 1 -15 -13 -12 -36 3 -27 4 3 8 0 9 -7 0
-7 3 -29 4 -51 2 -21 11 -44 21 -51 21 -15 28 -90 9 -90 -8 0 -19 -9 -25 -20
-7 -11 -20 -21 -31 -23 -11 -2 -15 1 -11 7 4 7 -4 12 -19 13 -14 0 -32 1 -38
2 -17 1 -52 37 -55 55 -2 19 16 43 28 35 5 -3 8 0 7 7 -2 7 7 17 19 24 15 8
19 15 13 25 -5 8 -6 18 -4 22 3 4 0 8 -6 8 -6 0 -8 5 -4 13 6 9 5 9 -7 0 -46
-38 -98 33 -57 77 15 16 29 20 53 17 18 -3 38 -8 44 -11 19 -12 51 -15 51 -5
0 6 5 7 11 3 8 -5 10 1 5 19 -3 14 -1 29 4 32 6 4 8 10 6 14 -3 4 1 8 9 8 8 0
15 -9 15 -19z m2650 -88 c4 7 13 9 19 5 17 -10 82 -146 75 -156 -3 -5 6 -24
20 -42 29 -38 36 -68 11 -47 -8 7 -15 21 -15 31 0 11 -6 19 -13 19 -8 0 -19
12 -25 26 -7 14 -8 23 -2 19 22 -13 8 18 -19 46 -47 46 -71 80 -70 98 0 12 2
12 6 2 4 -10 7 -11 13 -1z m-40 -55 c0 -5 -5 -3 -10 5 -5 8 -10 20 -10 25 0 6
5 3 10 -5 5 -8 10 -19 10 -25z m1409 -995 c0 -509 -3 -943 -8 -965 l-7 -40 -7
35 c-10 45 -9 1843 0 1930 l7 65 7 -50 c4 -27 7 -466 8 -975z m596 -848 c-3
-3 -8 -2 -12 2 -12 12 -10 1764 2 1811 7 28 11 -243 13 -884 1 -508 0 -927 -3
-929z m-222 1716 c72 -71 127 -143 127 -167 0 -9 -8 -3 -20 16 -23 38 -60 62
-60 39 0 -8 14 -28 30 -45 20 -19 30 -39 28 -53 -3 -32 12 -98 23 -98 17 0 9
-35 -21 -98 -17 -35 -30 -68 -30 -74 0 -18 -76 -173 -92 -185 -12 -11 -22 -7
-56 19 -38 29 -40 33 -22 40 32 12 23 37 -32 92 -29 29 -61 65 -70 81 -10 17
-22 37 -27 45 -5 8 -12 27 -16 43 -5 24 -8 26 -27 16 -19 -10 -20 -9 -14 17 4
16 19 56 33 89 32 76 51 132 59 170 6 32 86 115 110 115 8 0 42 -28 77 -62z
m-4058 -59 c8 -12 -31 -49 -51 -49 -7 0 -18 10 -25 21 -8 15 -8 19 0 15 6 -4
11 -2 11 4 0 6 5 8 10 5 6 -3 10 -1 10 4 0 14 37 14 45 0z m3805 -339 c0 -12
-28 -25 -36 -17 -9 9 6 27 22 27 8 0 14 -5 14 -10z m1938 -45 c-10 -11 -48
-14 -48 -4 0 5 12 9 27 9 14 0 24 -2 21 -5z m-1898 -90 c0 -8 -7 -15 -15 -15
-16 0 -20 12 -8 23 11 12 23 8 23 -8z m-1675 -4 c3 -5 2 -12 -3 -15 -5 -3 -9
1 -9 9 0 17 3 19 12 6z m1765 -77 c0 -2 -12 -4 -26 -4 -14 0 -23 4 -20 9 6 8
46 4 46 -5z m-1785 -94 c3 -5 -1 -10 -10 -10 -9 0 -13 5 -10 10 3 6 8 10 10
10 2 0 7 -4 10 -10z m3110 -49 c-3 -5 2 -16 10 -24 20 -21 19 -53 -2 -61 -83
-30 -91 -26 -73 29 7 20 23 41 38 50 32 17 35 18 27 6z m-1220 -36 c18 -19 41
-56 50 -82 10 -27 32 -85 51 -130 33 -78 45 -151 24 -138 -14 9 -13 -58 2 -73
19 -19 -3 -14 -25 6 -19 16 -20 16 -31 -2 -51 -85 -89 -134 -101 -130 -19 8
-37 -32 -30 -66 4 -19 1 -37 -10 -54 -20 -31 -35 -33 -35 -7 0 11 -5 23 -11
27 -8 5 -10 -1 -7 -20 3 -14 2 -26 -1 -26 -13 0 -72 113 -67 127 3 8 2 12 -3
9 -5 -3 -14 9 -20 27 -7 17 -24 55 -38 84 -22 45 -24 57 -14 84 6 18 11 44 11
59 0 15 11 48 25 75 15 28 23 55 20 66 -9 27 -23 15 -45 -37 -21 -47 -30 -55
-30 -26 0 20 100 155 163 220 51 52 78 54 122 7z m623 -142 c18 -16 19 -20 7
-31 -10 -8 -15 -9 -15 -2 0 6 -4 9 -9 5 -9 -5 -31 24 -31 39 0 12 29 5 48 -11z
m381 -19 l23 -26 -33 -34 c-18 -19 -27 -34 -20 -34 7 0 10 -4 7 -9 -3 -5 -20
-5 -38 -2 -29 6 -33 11 -32 39 2 34 38 92 58 92 7 0 23 -12 35 -26z m321 -52
c0 -61 -59 -92 -96 -50 -15 16 -16 20 -3 33 8 7 21 15 29 17 8 2 21 9 28 16
23 21 42 14 42 -16z m-186 -77 c-4 -8 -10 -12 -15 -9 -14 8 -10 24 6 24 9 0
12 -6 9 -15z m-74 -14 c0 -5 -7 -11 -15 -15 -9 -3 -15 0 -15 9 0 8 7 15 15 15
8 0 15 -4 15 -9z m-3082 -83 c13 -13 16 -48 4 -48 -14 0 -32 23 -32 42 0 21
11 23 28 6z m92 -7 c16 -31 -4 -72 -32 -67 -19 3 -22 9 -20 32 1 16 5 35 7 42
7 18 33 14 45 -7z m3230 -47 c0 -20 -5 -24 -27 -24 -22 0 -25 2 -13 10 8 5 11
10 7 10 -4 0 -3 9 3 20 14 26 30 17 30 -16z m-3020 6 c22 -41 -33 -86 -62 -51
-16 21 -34 29 -23 11 3 -5 1 -10 -5 -10 -7 0 -9 8 -5 20 4 12 2 27 -4 34 -9
11 -2 14 39 15 40 0 52 -3 60 -19z m-160 -40 c0 -5 -7 -10 -15 -10 -8 0 -15 5
-15 10 0 6 7 10 15 10 8 0 15 -4 15 -10z m106 -31 c3 -6 1 -16 -5 -22 -9 -9
-14 -8 -21 3 -5 8 -10 18 -10 23 0 11 28 8 36 -4z m2877 -13 c11 -11 12 -25 5
-63 -5 -26 -9 -60 -8 -74 0 -15 -6 -32 -14 -38 -8 -6 -12 -20 -9 -30 5 -18 -9
-34 -34 -37 -8 -2 -9 5 -3 21 6 17 4 34 -10 62 -21 44 -7 59 22 23 10 -12 18
-18 18 -13 0 5 -3 13 -7 16 -3 4 -14 25 -25 48 l-18 41 31 29 c36 34 34 33 52
15z m-2935 -8 c19 -19 14 -28 -12 -28 -27 0 -41 14 -31 30 8 14 28 13 43 -2z
m195 -59 c27 -27 35 -49 18 -49 -13 0 -57 61 -65 90 -6 23 -5 24 6 5 7 -11 25
-31 41 -46z m1717 35 c0 -2 -7 -4 -15 -4 -8 0 -15 4 -15 10 0 5 7 7 15 4 8 -4
15 -8 15 -10z m-1802 -43 c29 -40 8 -54 -23 -15 -22 27 -24 44 -6 44 4 0 17
-13 29 -29z m1705 14 c-3 -9 -8 -14 -10 -11 -3 3 -2 9 2 15 9 16 15 13 8 -4z
m-1756 -40 c-5 -14 -29 -13 -34 2 -3 7 4 11 16 10 12 -1 20 -6 18 -12z m1799
3 c5 4 5 3 1 -2 -4 -6 -13 -11 -20 -12 -7 -1 -20 -5 -29 -9 -22 -9 -23 -1 -2
20 11 11 20 13 28 5 7 -5 17 -6 22 -2z m-1676 -53 c0 -5 -5 -3 -10 5 -5 8 -10
20 -10 25 0 6 5 3 10 -5 5 -8 10 -19 10 -25z m243 -50 c20 -42 4 -47 -18 -5
-17 33 -18 40 -7 40 5 0 16 -16 25 -35z m-35 -17 c37 -48 33 -68 -5 -23 -14
17 -23 22 -19 13 3 -10 1 -18 -5 -18 -6 0 -9 8 -7 18 2 11 -3 26 -11 35 -11
15 -11 17 1 17 7 0 28 -19 46 -42z m2650 11 c19 -31 4 -38 -18 -9 -11 14 -20
28 -20 32 0 13 25 -2 38 -23z m89 -15 c-3 -3 -12 -4 -19 -1 -8 3 -5 6 6 6 11
1 17 -2 13 -5z m-484 -42 c6 9 7 6 4 -9 -5 -24 1 -27 56 -23 23 1 38 -9 73
-47 25 -26 53 -61 62 -76 33 -55 191 -100 207 -59 4 12 9 12 30 -2 46 -30 74
-15 75 42 0 14 -36 16 -45 2 -9 -14 -65 -12 -66 3 -1 6 0 18 1 26 1 9 -5 12
-19 8 -28 -7 -27 14 2 40 27 23 65 35 72 23 3 -5 20 -4 38 1 17 5 33 9 35 9 1
0 2 -12 1 -27 -1 -16 1 -35 5 -44 4 -10 3 -20 -3 -24 -6 -3 -11 -26 -11 -50 0
-66 -33 -126 -42 -77 -2 12 -13 17 -36 17 -17 0 -32 -3 -32 -7 0 -4 -9 -10
-20 -13 -29 -9 -25 -30 15 -72 22 -23 34 -45 31 -55 -2 -10 0 -18 5 -18 6 0 1
-10 -10 -22 -15 -16 -18 -25 -10 -34 18 -21 -17 -114 -43 -114 -5 0 -7 4 -4 9
11 17 -50 32 -137 34 -57 2 -91 -1 -98 -9 -10 -12 -56 -7 -65 8 -4 6 8 9 28 7
45 -4 61 7 48 31 -14 26 -78 44 -99 27 -25 -19 -31 -30 -21 -43 11 -13 3 -24
-18 -24 -9 0 -13 7 -9 20 3 11 1 20 -4 20 -5 0 -9 -4 -9 -9 0 -5 -12 -9 -28
-9 -15 1 -37 -2 -49 -6 -15 -5 -27 -1 -41 15 -20 21 -20 21 -31 1 -6 -12 -11
-27 -11 -35 0 -8 -6 -19 -13 -25 -10 -9 -13 -4 -15 21 -6 71 -16 92 -53 107
-16 7 -34 20 -39 29 -15 30 4 44 59 43 52 -2 57 1 99 52 9 11 9 16 1 16 -8 0
-8 4 -1 13 9 10 13 71 4 62 -2 -2 -16 10 -30 26 -23 26 -40 35 -74 38 -16 2
-7 28 21 67 16 21 31 50 32 64 3 21 12 27 49 34 25 5 52 17 60 27 13 16 16 16
39 -2 19 -15 26 -17 34 -7z m-736 -21 c47 -44 71 -101 41 -101 -6 0 -8 3 -5 6
12 12 -14 44 -35 44 -20 0 -18 -4 16 -39 21 -21 41 -54 46 -74 12 -57 -4 -265
-24 -312 -11 -24 -20 -35 -23 -26 -5 11 -7 11 -15 0 -7 -10 -8 -8 -3 6 4 11 8
32 9 47 1 15 13 35 26 46 18 15 22 24 16 46 -4 15 -10 24 -15 21 -5 -2 -12 11
-15 30 -4 19 -10 35 -14 35 -5 0 -18 -20 -30 -45 -12 -25 -17 -45 -12 -45 29
0 0 -106 -43 -152 -28 -30 -30 -37 -17 -46 8 -5 12 -13 8 -17 -4 -4 -14 -2
-23 5 -19 16 -68 7 -102 -20 -28 -21 -46 -19 -36 6 3 8 0 26 -7 39 -7 13 -10
33 -7 44 7 27 -7 35 -26 16 -28 -27 -37 -17 -39 43 -2 80 2 106 15 114 8 5 8
8 1 8 -6 0 -11 23 -13 53 -2 64 -9 89 -23 81 -6 -4 -9 11 -7 42 3 34 13 63 35
94 l31 45 86 7 c47 3 94 11 104 17 31 18 67 12 100 -18z m1707 -150 c17 -19
13 -51 -8 -51 -19 0 -86 26 -97 37 -19 19 0 33 45 33 29 0 48 -6 60 -19z
m-171 -122 c19 -17 30 -20 75 -14 51 6 53 5 92 -33 22 -21 40 -44 40 -50 0
-18 -27 -14 -34 4 -4 10 -13 13 -25 9 -11 -3 -22 -1 -26 5 -4 6 -19 3 -43 -9
-32 -17 -41 -17 -62 -6 -14 7 -29 11 -34 8 -5 -4 -6 -1 -2 5 3 6 2 13 -4 17
-16 10 -41 65 -35 75 10 16 34 11 58 -11z m272 -129 c-3 -5 0 -7 9 -4 10 4 34
-13 66 -45 44 -44 49 -54 40 -71 -6 -11 -17 -20 -25 -20 -8 0 -15 -4 -15 -8 0
-5 -7 -9 -15 -9 -13 0 -19 9 -17 28 1 9 -51 5 -65 -4 -8 -5 -13 -3 -13 4 0 8
-4 8 -15 -1 -11 -9 -19 -10 -26 -3 -11 11 -2 43 12 43 6 0 5 9 -2 21 -15 29 3
48 27 28 16 -13 16 -12 4 11 -10 21 -10 23 1 13 20 -20 31 -15 19 7 -9 16 -8
20 5 20 9 0 13 -4 10 -10z m-65 -16 c0 -8 -19 -13 -24 -6 -3 5 1 9 9 9 8 0 15
-2 15 -3z m-76 -92 c2 -4 -4 -9 -15 -9 -11 -1 -17 2 -14 8 7 11 22 12 29 1z
m-681 -77 c4 -8 18 -14 34 -13 15 1 41 -2 57 -7 18 -5 27 -4 23 2 -3 5 0 10 8
10 10 0 11 -5 5 -17 -5 -10 -6 -20 -3 -24 3 -3 1 -6 -5 -6 -7 0 -12 5 -12 10
0 6 -4 10 -8 10 -5 0 -7 -13 -4 -29 3 -23 -1 -30 -17 -36 -11 -3 -29 -1 -40 5
-11 5 -24 10 -28 9 -22 -4 -32 4 -56 40 l-26 39 22 10 c31 15 44 14 50 -3z
m-418 -33 c-8 -9 -25 20 -18 31 3 5 10 2 15 -7 6 -10 7 -20 3 -24z m673 -24
c-6 -18 -28 -21 -28 -4 0 9 7 16 16 16 9 0 14 -5 12 -12z m-1213 -47 c-6 -5
-28 -10 -50 -11 -62 -3 -77 -1 -70 10 3 6 34 10 68 10 37 0 57 -4 52 -9z
m-249 -16 c-21 -16 -82 -20 -90 -6 -10 15 7 21 58 21 47 -1 49 -2 32 -15z m34
-98 c-7 -38 -8 -36 -8 28 0 54 2 63 8 42 5 -16 5 -47 0 -70z m77 56 c-3 -10
-5 -4 -5 12 0 17 2 24 5 18 2 -7 2 -21 0 -30z m160 -40 c-3 -10 -5 -4 -5 12 0
17 2 24 5 18 2 -7 2 -21 0 -30z m778 27 c14 -6 16 -9 5 -10 -24 -3 -44 1 -54
11 -12 11 21 11 49 -1z m-855 -103 l-22 -22 5 53 c8 73 20 86 31 34 8 -39 7
-46 -14 -65z m-93 41 c-2 -13 -4 -5 -4 17 -1 22 1 32 4 23 2 -10 2 -28 0 -40z
m-128 -44 c1 -7 -8 -14 -19 -17 -23 -6 -26 12 -8 46 11 21 11 21 19 2 4 -11 8
-25 8 -31z m981 -14 c0 -5 -4 -10 -9 -10 -6 0 -13 5 -16 10 -3 6 1 10 9 10 9
0 16 -4 16 -10z m-918 -47 c-5 -83 -9 -90 -11 -20 0 37 2 67 7 67 4 0 6 -21 4
-47z m78 -18 c0 -37 -4 -65 -10 -65 -6 0 -10 28 -10 65 0 37 4 65 10 65 6 0
10 -28 10 -65z m-228 -22 c3 -35 1 -63 -4 -63 -4 0 -8 33 -7 73 1 84 6 79 11
-10z m368 -38 c-14 -16 -60 -21 -60 -6 0 6 15 12 33 14 17 2 34 5 36 5 2 1 -2
-5 -9 -13z m-72 -7 c-3 -7 -17 -14 -31 -16 -21 -3 -26 0 -21 12 7 19 58 22 52
4z m-1588 -13 c7 -9 10 -18 7 -22 -8 -7 -37 15 -37 28 0 14 16 11 30 -6z
m1415 -4 c-6 -5 -34 -11 -63 -14 -47 -5 -52 -4 -42 8 8 10 31 15 63 15 30 0
47 -4 42 -9z"/>
<path d="M5090 9255 c72 -31 94 -31 55 0 -21 18 -42 25 -70 25 l-40 -1 55 -24z"/>
<path d="M4992 9240 c0 -14 2 -19 5 -12 2 6 2 18 0 25 -3 6 -5 1 -5 -13z"/>
<path d="M5460 7730 c0 -5 5 -10 11 -10 5 0 7 5 4 10 -3 6 -8 10 -11 10 -2 0
-4 -4 -4 -10z"/>
<path d="M5166 7695 c4 -8 8 -15 10 -15 2 0 4 7 4 15 0 8 -4 15 -10 15 -5 0
-7 -7 -4 -15z"/>
<path d="M5229 7693 c5 -10 17 -27 26 -38 16 -20 16 -19 9 5 -8 29 -23 50 -36
50 -5 0 -5 -7 1 -17z"/>
<path d="M3966 7517 c3 -10 9 -15 12 -12 3 3 0 11 -7 18 -10 9 -11 8 -5 -6z"/>
<path d="M4010 7446 c0 -13 84 -174 131 -251 26 -44 87 -168 135 -275 49 -107
91 -197 94 -200 3 -3 21 -45 40 -95 18 -49 64 -152 102 -227 37 -76 68 -146
68 -156 0 -24 8 -32 26 -25 20 7 17 36 -6 63 -25 28 -25 37 -2 43 14 4 14 5 1
6 -19 1 -56 67 -99 176 -17 44 -35 85 -40 90 -4 6 -11 21 -15 35 -4 14 -29 74
-56 133 -27 60 -49 116 -49 124 0 8 -16 45 -34 82 -58 111 -86 171 -81 171 17
0 -85 159 -102 160 -6 0 -34 34 -62 76 -28 42 -51 73 -51 70z"/>
<path d="M3520 7353 c-23 -8 -70 -55 -85 -83 -21 -40 -28 -115 -16 -153 6 -18
27 -51 46 -72 34 -36 37 -37 86 -33 94 9 144 71 144 179 0 56 -4 72 -28 106
-38 55 -92 76 -147 56z m103 -63 c51 -60 47 -152 -8 -207 -57 -57 -127 -39
-161 43 -28 66 -7 140 48 174 49 30 91 26 121 -10z"/>
<path d="M5340 7265 c0 -13 45 -95 52 -95 5 0 -3 23 -17 50 -22 44 -35 60 -35
45z"/>
<path d="M4286 7047 c3 -10 9 -15 12 -12 3 3 0 11 -7 18 -10 9 -11 8 -5 -6z"/>
<path d="M3906 6992 c-27 -38 -54 -59 -109 -87 -139 -72 -179 -119 -183 -213
-2 -41 -8 -60 -24 -76 -21 -21 -21 -21 -36 -2 -8 11 -14 26 -14 34 0 23 -56 7
-122 -33 -63 -39 -87 -43 -124 -19 -38 26 -54 4 -30 -41 32 -60 59 -78 109
-74 l45 4 5 -65 c5 -75 38 -230 49 -230 4 0 19 38 33 85 14 46 30 87 35 90 19
12 86 -112 96 -177 9 -67 12 -72 29 -58 24 20 84 154 101 227 10 42 14 98 12
146 -2 42 -2 77 0 77 2 0 24 -18 49 -40 40 -35 52 -40 95 -40 75 0 149 47 211
133 43 59 35 73 -41 69 -37 -3 -91 3 -132 13 -67 16 -82 26 -60 40 25 15 53
104 58 183 6 109 -5 120 -52 54z m3 -130 c-14 -68 -39 -99 -89 -107 -49 -8
-60 -22 -23 -31 15 -3 60 -17 98 -30 39 -12 96 -26 128 -29 66 -7 70 -18 30
-66 -47 -56 -137 -77 -188 -43 -34 22 -140 145 -118 137 10 -4 51 -29 92 -55
86 -56 141 -63 200 -27 44 27 35 33 -20 14 -59 -21 -90 -14 -174 42 -38 26
-83 49 -99 53 -28 5 -27 7 40 40 64 32 71 39 99 96 17 34 31 61 33 59 1 -1 -3
-25 -9 -53z m-42 1 c-22 -41 -45 -59 -109 -83 -31 -11 -68 -30 -82 -41 -42
-33 -33 3 11 46 31 30 181 116 191 109 2 -1 -3 -15 -11 -31z m-140 -279 c22
-49 25 -66 20 -123 -3 -36 -15 -93 -25 -126 l-20 -60 -1 66 c-1 70 -29 178
-56 217 -31 43 -32 22 -4 -58 29 -81 49 -240 35 -277 -6 -14 -11 -8 -26 29
-10 26 -35 71 -55 99 l-37 52 21 64 c12 35 21 73 21 86 0 12 9 37 20 55 15 25
27 32 50 32 28 0 34 -6 57 -56z m-276 -28 c-33 -48 -69 -63 -103 -45 -21 11
-20 13 20 24 23 7 55 24 72 39 44 36 46 33 11 -18z m58 -8 c-12 -23 -23 -68
-26 -102 -7 -101 -13 -132 -24 -115 -13 20 -11 156 2 182 11 21 59 77 66 77 2
0 -6 -19 -18 -42z m36 -77 c-10 -36 -24 -73 -31 -81 -12 -12 -14 -7 -14 37 0
57 12 98 38 127 16 17 17 17 21 0 1 -9 -5 -47 -14 -83z"/>
<path d="M5215 7020 c-3 -5 1 -10 9 -10 9 0 16 5 16 10 0 6 -4 10 -9 10 -6 0
-13 -4 -16 -10z"/>
<path d="M4850 6995 c0 -5 5 -17 10 -25 5 -8 10 -10 10 -5 0 6 -5 17 -10 25
-5 8 -10 11 -10 5z"/>
<path d="M4520 6986 c0 -2 8 -10 18 -17 15 -13 16 -12 3 4 -13 16 -21 21 -21
13z"/>
<path d="M3294 6954 c-23 -35 -23 -108 1 -134 25 -28 52 -25 87 10 27 27 30
36 25 71 -3 22 -13 49 -23 60 -25 28 -70 25 -90 -7z m76 -23 c16 -30 12 -59
-10 -81 -26 -26 -36 -25 -55 4 -14 22 -15 28 -1 60 17 41 49 49 66 17z"/>
<path d="M4990 6973 c0 -5 8 -17 17 -28 14 -18 15 -18 9 -2 -3 10 -6 23 -6 28
0 5 -4 9 -10 9 -5 0 -10 -3 -10 -7z"/>
<path d="M4760 6920 c6 -11 13 -20 16 -20 2 0 0 9 -6 20 -6 11 -13 20 -16 20
-2 0 0 -9 6 -20z"/>
<path d="M4690 6876 c0 -2 8 -10 18 -17 15 -13 16 -12 3 4 -13 16 -21 21 -21
13z"/>
<path d="M5284 6852 c9 -17 20 -33 25 -37 5 -3 3 8 -5 25 -9 16 -20 32 -25 36
-6 3 -4 -8 5 -24z"/>
<path d="M3492 6844 c-24 -17 -30 -61 -12 -95 24 -44 100 -10 100 46 0 28 -27
65 -48 65 -10 0 -28 -7 -40 -16z m52 -39 c8 -21 -3 -45 -20 -45 -18 0 -28 24
-20 45 3 8 12 15 20 15 7 0 16 -7 20 -15z"/>
<path d="M4710 6806 c0 -2 8 -10 18 -17 15 -13 16 -12 3 4 -13 16 -21 21 -21
13z"/>
<path d="M4600 6785 c0 -9 30 -65 35 -65 7 0 -16 60 -26 66 -5 3 -9 2 -9 -1z"/>
<path d="M5320 6781 c0 -5 5 -13 10 -16 6 -3 10 -2 10 4 0 5 -4 13 -10 16 -5
3 -10 2 -10 -4z"/>
<path d="M4883 6755 c0 -8 4 -12 9 -9 5 3 6 10 3 15 -9 13 -12 11 -12 -6z"/>
<path d="M4720 6726 c0 -7 7 -21 16 -32 14 -18 15 -18 4 4 -16 34 3 26 25 -10
10 -18 20 -27 23 -20 5 15 -34 65 -54 68 -7 1 -14 -3 -14 -10z"/>
<path d="M4857 6720 c3 -11 9 -20 15 -20 5 0 4 9 -2 20 -6 11 -12 20 -14 20
-2 0 -2 -9 1 -20z"/>
<path d="M4810 6665 c0 -8 4 -15 10 -15 5 0 7 7 4 15 -4 8 -8 15 -10 15 -2 0
-4 -7 -4 -15z"/>
<path d="M4930 6660 c0 -5 5 -10 10 -10 6 0 10 5 10 10 0 6 -4 10 -10 10 -5 0
-10 -4 -10 -10z"/>
<path d="M4777 6615 c9 -19 18 -33 21 -31 4 5 -26 66 -33 66 -3 0 3 -16 12
-35z"/>
<path d="M4830 6625 c0 -17 -2 -18 -11 -5 -8 12 -9 9 -4 -10 15 -62 15 -63 -1
-49 -13 11 -14 9 -3 -14 7 -15 16 -24 20 -21 5 3 6 -1 3 -9 -6 -17 72 -118 89
-114 6 1 11 -6 9 -15 -1 -9 2 -19 8 -23 6 -4 7 1 3 12 -6 15 -2 14 21 -5 50
-38 61 -28 30 28 -15 28 -29 48 -32 45 -8 -8 -32 16 -32 32 0 8 4 12 9 9 19
-12 19 24 0 47 -10 14 -19 31 -19 39 0 11 -2 11 -9 0 -7 -12 -10 -12 -19 0
-61 73 -61 74 -62 53z m40 -131 c0 -8 4 -14 10 -14 11 0 44 -59 37 -67 -6 -6
-67 82 -67 97 0 6 5 8 10 5 6 -3 10 -13 10 -21z"/>
<path d="M4356 6505 c9 -14 18 -25 20 -25 2 0 -2 11 -8 25 -6 14 -15 25 -20
25 -5 0 -1 -11 8 -25z"/>
<path d="M4980 6461 c0 -6 4 -13 10 -16 6 -3 7 1 4 9 -7 18 -14 21 -14 7z"/>
<path d="M4635 6240 c3 -5 8 -10 11 -10 2 0 4 5 4 10 0 6 -5 10 -11 10 -5 0
-7 -4 -4 -10z"/>
<path d="M4730 6145 c0 -5 5 -17 10 -25 5 -8 10 -10 10 -5 0 6 -5 17 -10 25
-5 8 -10 11 -10 5z"/>
<path d="M4708 6069 c6 -7 12 -23 12 -35 0 -13 5 -26 10 -29 6 -4 10 6 10 24
0 21 -7 34 -22 42 -19 9 -21 9 -10 -2z"/>
<path d="M3905 5850 c-5 -9 -170 -110 -179 -110 -2 0 -7 11 -10 25 -3 13 -23
37 -43 52 -31 24 -46 28 -99 28 -48 0 -70 -5 -90 -21 -57 -42 -67 -67 -75
-176 -4 -57 -4 -106 -1 -110 4 -3 115 -9 247 -13 269 -8 282 -5 267 50 l-8 30
-87 3 c-83 3 -87 4 -87 25 0 17 11 29 43 44 23 12 65 36 92 55 47 31 50 36 53
81 3 44 -8 61 -23 37z m-269 -103 c26 -22 47 -94 36 -125 -2 -8 -35 -12 -103
-12 l-99 0 0 43 c1 23 7 53 14 66 29 53 106 67 152 28z"/>
<path d="M4310 5759 c-52 -44 -144 -122 -205 -174 -60 -51 -121 -102 -134
-113 -14 -11 -21 -24 -17 -30 16 -27 15 -28 339 246 87 74 136 121 132 130 -3
7 -5 16 -5 18 0 12 -24 -5 -110 -77z"/>
<path d="M5049 5816 c14 -14 26 -24 29 -22 7 8 -8 25 -31 37 -21 11 -21 10 2
-15z"/>
<path d="M4762 5680 c-17 -27 -15 -60 3 -60 8 0 15 5 15 10 0 15 16 12 18 -2
6 -62 9 -78 16 -85 5 -4 5 3 1 16 -6 19 -4 23 8 18 14 -5 14 -2 5 18 -6 14
-15 25 -19 25 -5 0 -6 7 -2 16 5 15 -14 64 -26 64 -4 0 -12 -9 -19 -20z"/>
<path d="M4855 5450 c9 -16 18 -30 21 -30 2 0 -2 14 -11 30 -9 17 -18 30 -21
30 -2 0 2 -13 11 -30z"/>
<path d="M3880 5394 c-72 -56 -90 -73 -90 -84 0 -21 26 -8 97 47 53 40 71 58
61 64 -18 12 -18 12 -68 -27z"/>
<path d="M5197 5354 c3 -8 14 -19 25 -25 17 -9 18 -8 9 9 -13 24 -43 38 -34
16z"/>
<path d="M4690 5260 c6 -11 13 -20 16 -20 2 0 0 9 -6 20 -6 11 -13 20 -16 20
-2 0 0 -9 6 -20z"/>
<path d="M3820 5118 c-316 -117 -407 -152 -417 -160 -7 -6 -13 -21 -13 -33 0
-12 6 -27 13 -32 16 -13 240 -103 255 -103 7 0 60 -18 118 -40 59 -22 113 -40
120 -40 9 0 14 13 14 38 l0 38 -87 30 -88 30 1 78 0 79 73 28 c85 33 111 53
111 86 0 29 -23 29 -100 1z m-145 -193 c0 -30 -3 -55 -6 -55 -12 0 -135 43
-142 50 -8 7 22 20 108 49 17 5 32 10 35 10 3 1 5 -24 5 -54z"/>
<path d="M4960 5105 c0 -15 18 -40 24 -34 3 3 -1 14 -9 25 -8 10 -14 15 -15 9z"/>
<path d="M4886 4997 c3 -10 9 -15 12 -12 3 3 0 11 -7 18 -10 9 -11 8 -5 -6z"/>
<path d="M4730 4811 c0 -10 27 -41 36 -41 7 0 -15 38 -26 45 -6 3 -10 2 -10
-4z"/>
<path d="M4730 4626 c0 -2 7 -9 15 -16 13 -11 14 -10 9 4 -5 14 -24 23 -24 12z"/>
<path d="M4850 4626 c0 -2 8 -10 18 -17 15 -13 16 -12 3 4 -13 16 -21 21 -21
13z"/>
<path d="M4750 4470 c6 -11 13 -20 16 -20 2 0 0 9 -6 20 -6 11 -13 20 -16 20
-2 0 0 -9 6 -20z"/>
<path d="M4734 4392 c0 -11 3 -19 7 -16 4 2 9 -2 12 -8 2 -7 7 -10 11 -7 4 3
-2 16 -12 29 -17 21 -18 21 -18 2z"/>
<path d="M3663 4335 c-18 -8 -41 -28 -51 -44 -17 -28 -20 -29 -38 -16 -29 22
-96 19 -127 -5 -34 -27 -47 -76 -47 -182 l0 -88 158 -2 c86 -2 196 -3 244 -3
l87 0 17 -38 c10 -21 22 -40 27 -44 5 -3 0 10 -10 28 -15 28 -18 57 -18 164 0
113 -3 135 -21 165 -38 66 -147 98 -221 65z m128 -75 c32 -18 50 -65 47 -128
l-3 -57 -98 0 c-55 0 -104 3 -109 7 -14 8 -3 120 14 147 7 11 21 24 33 30 27
13 92 14 116 1z m-243 -52 c7 -7 12 -39 12 -75 l0 -63 -50 0 -50 0 0 57 c0 38
5 62 17 75 18 21 53 24 71 6z"/>
<path d="M4950 4029 c0 -5 5 -7 10 -4 6 3 10 8 10 11 0 2 -4 4 -10 4 -5 0 -10
-5 -10 -11z"/>
<path d="M4900 3960 c8 -5 20 -10 25 -10 6 0 3 5 -5 10 -8 5 -19 10 -25 10 -5
0 -3 -5 5 -10z"/>
<path d="M4910 3930 c-9 -6 -10 -10 -3 -10 6 0 15 5 18 10 8 12 4 12 -15 0z"/>
<path d="M4710 3835 c1 -13 48 -70 54 -65 2 3 -9 21 -25 40 -16 19 -29 30 -29
25z"/>
<path d="M3976 3817 c3 -10 9 -15 12 -12 3 3 0 11 -7 18 -10 9 -11 8 -5 -6z"/>
<path d="M3627 3594 c-4 -4 -7 -47 -7 -96 l0 -89 -77 3 -78 3 -3 88 c-3 84 -3
87 -27 87 -24 0 -24 -1 -27 -114 -2 -62 -2 -121 0 -130 3 -14 30 -16 247 -16
231 0 245 1 255 19 5 11 10 29 10 40 0 20 -5 21 -115 21 l-114 0 -3 93 c-3 90
-3 92 -28 95 -14 2 -29 0 -33 -4z"/>
<path d="M4140 3352 c0 -31 10 -52 25 -52 19 0 14 38 -7 57 -17 15 -18 15 -18
-5z"/>
<path d="M4185 3264 c11 -51 38 -104 52 -104 24 0 -8 92 -42 120 -15 12 -16
10 -10 -16z"/>
<path d="M4838 3150 c-3 -16 -1 -30 4 -30 4 0 8 14 8 30 0 17 -2 30 -4 30 -2
0 -6 -13 -8 -30z"/>
<path d="M4240 3114 c20 -50 31 -67 42 -56 12 12 3 46 -18 67 -24 23 -35 18
-24 -11z"/>
<path d="M4270 3024 c0 -7 47 -110 66 -146 8 -14 14 -33 14 -42 0 -9 7 -16 15
-16 20 0 19 12 -9 92 -27 78 -51 118 -71 118 -8 0 -15 -3 -15 -6z"/>
<path d="M3858 2838 l-3 -93 -222 -3 -223 -2 0 -35 0 -35 258 2 257 3 3 128 3
127 -35 0 -35 0 -3 -92z"/>
<path d="M4330 2770 c0 -5 5 -10 11 -10 5 0 7 5 4 10 -3 6 -8 10 -11 10 -2 0
-4 -4 -4 -10z"/>
<path d="M4360 2761 c0 -4 5 -12 11 -18 7 -7 14 -62 17 -133 4 -112 3 -127
-23 -206 -17 -54 -32 -83 -40 -81 -18 7 -12 -60 7 -79 15 -15 18 -12 41 37 51
109 62 158 62 276 0 95 2 110 14 100 8 -7 3 6 -11 28 -13 22 -27 47 -30 56 -6
16 -48 34 -48 20z"/>
<path d="M4573 2613 c0 -9 4 -10 14 -2 7 6 13 12 13 14 0 1 -6 2 -13 2 -8 0
-14 -6 -14 -14z"/>
<path d="M4520 2580 c-9 -6 -10 -10 -3 -10 6 0 15 5 18 10 8 12 4 12 -15 0z"/>
<path d="M4581 2434 c-7 -8 -11 -17 -9 -20 3 -2 13 5 23 16 10 11 14 20 9 20
-5 -1 -15 -8 -23 -16z"/>
<path d="M4321 2379 c7 -14 14 -18 21 -11 13 13 2 32 -18 32 -12 0 -13 -4 -3
-21z"/>
<path d="M3887 2246 c-11 -11 -13 -36 -9 -115 l5 -101 -87 0 -86 0 -1 83 c-1
99 -9 131 -33 135 -30 6 -37 -18 -34 -118 l3 -95 -82 -3 -82 -3 -3 108 c-3
108 -3 108 -28 108 l-25 0 0 -145 0 -145 260 0 259 0 -3 145 c-3 137 -7 159
-33 160 -4 0 -13 -6 -21 -14z"/>
<path d="M4968 1420 c16 -28 32 -39 32 -22 0 12 -30 52 -40 52 -5 0 -1 -13 8
-30z"/>
<path d="M5421 1289 c-9 -15 -10 -24 -2 -32 8 -8 11 -6 11 5 0 9 6 18 13 21 8
3 9 8 2 16 -8 7 -14 5 -24 -10z"/>
<path d="M5060 1293 c0 -5 13 -17 28 -27 l27 -19 -24 26 c-26 28 -31 32 -31
20z"/>
<path d="M6707 5063 c-14 -13 -6 -33 12 -33 25 0 38 20 20 31 -17 11 -24 11
-32 2z"/>
<path d="M6563 4793 c-20 -8 -15 -33 6 -33 16 0 31 18 31 36 0 5 -21 4 -37 -3z"/>
<path d="M6870 4603 c0 -16 -2 -16 -11 -3 -9 12 -10 12 -5 -3 3 -10 6 -23 6
-28 0 -24 16 -5 18 21 1 17 0 30 -3 30 -3 0 -5 -8 -5 -17z"/>
<path d="M6722 4136 c7 -8 15 -12 17 -11 5 6 -10 25 -20 25 -5 0 -4 -6 3 -14z"/>
<path d="M6886 3955 c4 -8 8 -15 10 -15 2 0 4 7 4 15 0 8 -4 15 -10 15 -5 0
-7 -7 -4 -15z"/>
<path d="M6766 3513 c-6 -14 -5 -15 5 -6 7 7 10 15 7 18 -3 3 -9 -2 -12 -12z"/>
<path d="M6610 2811 c0 -5 6 -14 14 -20 10 -9 15 -8 19 3 3 8 3 17 0 20 -9 9
-33 7 -33 -3z"/>
<path d="M7603 2515 c-16 -17 -17 -29 -2 -20 7 5 9 -4 5 -28 -6 -37 15 -74 35
-62 16 10 10 82 -8 103 -15 18 -20 19 -30 7z"/>
<path d="M7510 2450 c-14 -27 3 -60 28 -53 16 4 17 9 8 39 -12 39 -21 42 -36
14z"/>
<path d="M7425 2451 c-3 -5 -1 -12 5 -16 5 -3 10 1 10 9 0 18 -6 21 -15 7z"/>
<path d="M7580 2169 c-19 -10 -42 -18 -51 -19 -25 0 -51 -24 -44 -41 7 -20 73
-50 81 -37 3 5 12 7 20 4 8 -3 14 0 14 6 0 6 3 9 6 5 9 -8 62 56 57 69 -10 26
-48 32 -83 13z"/>
<path d="M6563 2392 c-5 -4 -9 -35 -9 -70 0 -47 2 -57 9 -40 5 13 6 39 3 58
-3 23 -2 30 4 20 5 -9 7 -57 6 -107 -3 -94 6 -180 17 -153 3 8 8 51 11 95 4
44 9 107 12 140 5 58 4 59 -11 35 -14 -22 -15 -22 -10 -4 6 22 -13 38 -32 26z
m34 -74 c-3 -8 -6 -5 -6 6 -1 11 2 17 5 13 3 -3 4 -12 1 -19z"/>
<path d="M6911 2274 c0 -11 3 -14 6 -6 3 7 2 16 -1 19 -3 4 -6 -2 -5 -13z"/>
<path d="M6654 2112 c-13 -8 -25 -74 -12 -66 4 3 8 0 8 -7 0 -7 3 -9 7 -5 4 4
6 24 5 44 l-3 37 20 -40 c11 -22 20 -34 20 -27 1 12 -26 72 -32 72 -1 0 -7 -4
-13 -8z"/>
</g>
</svg>
